<svg width="31" height="31" viewBox="0 0 31 31" fill="none" xmlns="http://www.w3.org/2000/svg">
<g clip-path="url(#clip0_157_132)">
<path d="M25.5 16.2006C24.7483 16.5267 23.9534 16.7423 23.14 16.8406C23.9982 16.3279 24.6413 15.5214 24.95 14.5706C24.1436 15.0507 23.2608 15.3889 22.34 15.5706C21.7245 14.9032 20.905 14.4589 20.0098 14.3075C19.1147 14.156 18.1945 14.306 17.3938 14.7338C16.593 15.1616 15.9569 15.8431 15.5852 16.6714C15.2135 17.4997 15.1273 18.428 15.34 19.3106C13.7094 19.2281 12.1144 18.8036 10.6587 18.0645C9.20287 17.3254 7.91885 16.2883 6.89 15.0206C6.52914 15.6508 6.33952 16.3644 6.34 17.0906C6.33872 17.765 6.50422 18.4292 6.82176 19.0242C7.13929 19.6191 7.59902 20.1263 8.16 20.5006C7.50798 20.4829 6.86989 20.3079 6.3 19.9906V20.0406C6.30489 20.9855 6.63599 21.8997 7.23731 22.6286C7.83864 23.3574 8.67326 23.8562 9.6 24.0406C9.24326 24.1492 8.87287 24.2064 8.5 24.2106C8.24189 24.2076 7.98442 24.1842 7.73 24.1406C7.99391 24.9534 8.50462 25.6637 9.19107 26.1728C9.87753 26.6818 10.7056 26.9642 11.56 26.9806C10.1172 28.1159 8.33588 28.7355 6.5 28.7406C6.16574 28.7417 5.83174 28.7217 5.5 28.6806C7.37443 29.8909 9.55881 30.5333 11.79 30.5306C13.3297 30.5466 14.8571 30.2556 16.2831 29.6747C17.7091 29.0937 19.005 28.2345 20.0952 27.1471C21.1854 26.0597 22.048 24.766 22.6326 23.3415C23.2172 21.917 23.512 20.3903 23.5 18.8506C23.5 18.6806 23.5 18.5006 23.5 18.3206C24.2847 17.7354 24.9615 17.018 25.5 16.2006Z" fill="#5671A6"/>
</g>
<defs>
<clipPath id="clip0_157_132">
<rect width="30" height="30" fill="white" transform="translate(0.5 0.25)"/>
</clipPath>
</defs>
</svg>
