<svg viewBox="0 0 50 50" xmlns="http://www.w3.org/2000/svg">
    <symbol id ="icon-exp" viewBox="0 0 17 20">
        <path d="M5.14548 6.6859L5.14336 6.68755L5.14135 6.68943L5.14548 6.6859ZM14.5128 6.51724C14.4473 6.45662 14.3747 6.40357 14.2964 6.35919C14.1855 6.2965 14.0624 6.25632 13.9348 6.24115C13.8071 6.22597 13.6775 6.23612 13.5541 6.27096C13.4307 6.3058 13.316 6.36459 13.2171 6.44371C13.1183 6.52282 13.0374 6.62057 12.9795 6.73092C12.6553 7.34456 12.2082 7.89066 11.6639 8.3379C11.7471 7.88728 11.7891 7.43051 11.7893 6.97284C11.7911 5.58055 11.4088 4.21267 10.6814 3.00849C9.95396 1.8043 8.90743 0.806819 7.64831 0.117599C7.50961 0.0420552 7.3532 0.00160591 7.19377 4.68429e-05C7.03434 -0.00151223 6.87711 0.03587 6.73683 0.108686C6.59656 0.181502 6.47784 0.287364 6.39181 0.416339C6.30578 0.545314 6.25527 0.693174 6.24501 0.846044C6.19235 1.70333 5.95908 2.54143 5.55935 3.30954C5.15961 4.07766 4.60173 4.75981 3.91951 5.31467L3.70262 5.48419C2.98923 5.94539 2.35776 6.51393 1.83247 7.16799C1.01594 8.15632 0.450299 9.31384 0.180416 10.5488C-0.0894666 11.7837 -0.0561707 13.062 0.277663 14.2824C0.611497 15.5028 1.23669 16.6317 2.10365 17.5796C2.97062 18.5274 4.05552 19.2682 5.27231 19.7431C5.41518 19.7991 5.57022 19.8206 5.72375 19.8055C5.87729 19.7904 6.0246 19.7393 6.15269 19.6566C6.28078 19.5738 6.38572 19.4621 6.45825 19.3312C6.53078 19.2003 6.56866 19.0543 6.56857 18.906C6.56789 18.8101 6.55209 18.7148 6.5217 18.6235C6.31116 17.8631 6.25054 17.0716 6.34295 16.2898C7.23341 17.9035 8.66277 19.1825 10.4012 19.9214C10.6134 20.0126 10.8533 20.0249 11.0744 19.9558C12.4479 19.5299 13.6853 18.7736 14.6689 17.7588C15.6525 16.744 16.3497 15.5044 16.6942 14.1578C17.0388 12.8112 17.0192 11.4023 16.6374 10.0651C16.2556 8.72776 15.5242 7.50647 14.5128 6.51724ZM10.8382 18.1184C10.0179 17.719 9.29428 17.1582 8.7144 16.4724C8.13451 15.7866 7.71133 14.9913 7.47238 14.1381C7.39941 13.8508 7.34296 13.5598 7.30329 13.2666C7.27641 13.0798 7.18945 12.9058 7.05459 12.7689C6.91972 12.6319 6.74369 12.5389 6.55109 12.5028C6.49176 12.4916 6.43142 12.486 6.37095 12.486C6.20555 12.486 6.04306 12.5278 5.89987 12.6074C5.75667 12.6869 5.63783 12.8013 5.55534 12.939C4.77452 14.233 4.38185 15.7094 4.42084 17.2046C3.73409 16.6916 3.16016 16.0527 2.73228 15.325C2.30441 14.5973 2.03112 13.7953 1.92824 12.9654C1.82537 12.1355 1.89495 11.2942 2.13297 10.4903C2.37099 9.68643 2.7727 8.93593 3.31483 8.2823C3.72646 7.7686 4.22303 7.32327 4.78475 6.96406C4.80907 6.94897 4.8324 6.93246 4.85459 6.91461C4.85459 6.91461 5.13382 6.69263 5.14336 6.68755C6.48408 5.59802 7.43763 4.13383 7.8712 2.49894C8.89654 3.40963 9.58024 4.6201 9.81612 5.9424C10.052 7.26469 9.82689 8.62482 9.17571 9.81159C9.08968 9.96995 9.05439 10.1492 9.07429 10.3269C9.09419 10.5045 9.16839 10.6724 9.28753 10.8096C9.40667 10.9467 9.56542 11.0469 9.74374 11.0974C9.92207 11.148 10.112 11.1467 10.2895 11.0937C11.731 10.6595 12.9995 9.81151 13.9242 8.66377C14.4799 9.45245 14.8432 10.3515 14.9871 11.2938C15.1309 12.2362 15.0516 13.1975 14.755 14.1063C14.4583 15.0151 13.9521 15.8479 13.2739 16.5425C12.5957 17.2372 11.7632 17.7759 10.8382 18.1184Z" fill="#383838"/>
    </symbol>
    <symbol id ="icon-proj" viewBox="0 0 20 20">
        <path d="M5 14C4.80222 14 4.60888 14.0586 4.44443 14.1685C4.27998 14.2784 4.15181 14.4346 4.07612 14.6173C4.00043 14.8 3.98063 15.0011 4.01921 15.1951C4.0578 15.3891 4.15304 15.5673 4.29289 15.7071C4.43275 15.847 4.61093 15.9422 4.80491 15.9808C4.99889 16.0194 5.19996 15.9996 5.38268 15.9239C5.56541 15.8482 5.72159 15.72 5.83147 15.5556C5.94135 15.3911 6 15.1978 6 15C6 14.7348 5.89464 14.4804 5.70711 14.2929C5.51957 14.1054 5.26522 14 5 14ZM17.06 10L18.29 8.77C18.8518 8.2075 19.1674 7.445 19.1674 6.65C19.1674 5.855 18.8518 5.0925 18.29 4.53L15.46 1.71C14.8975 1.1482 14.135 0.83264 13.34 0.83264C12.545 0.83264 11.7825 1.1482 11.22 1.71L10 2.94C9.98429 2.15479 9.6613 1.40706 9.10039 0.857361C8.53947 0.307664 7.78536 -0.000157028 7 6.00945e-08H3C2.20435 6.00945e-08 1.44129 0.316071 0.87868 0.87868C0.316071 1.44129 0 2.20435 0 3V17C0 17.7956 0.316071 18.5587 0.87868 19.1213C1.44129 19.6839 2.20435 20 3 20H17C17.7956 20 18.5587 19.6839 19.1213 19.1213C19.6839 18.5587 20 17.7956 20 17V13C20.0002 12.2146 19.6923 11.4605 19.1426 10.8996C18.5929 10.3387 17.8452 10.0157 17.06 10ZM8 17C8 17.2652 7.89464 17.5196 7.70711 17.7071C7.51957 17.8946 7.26522 18 7 18H3C2.73478 18 2.48043 17.8946 2.29289 17.7071C2.10536 17.5196 2 17.2652 2 17V3C2 2.73478 2.10536 2.48043 2.29289 2.29289C2.48043 2.10536 2.73478 2 3 2H7C7.26522 2 7.51957 2.10536 7.70711 2.29289C7.89464 2.48043 8 2.73478 8 3V17ZM10 5.76L12.64 3.12C12.8274 2.93375 13.0808 2.82921 13.345 2.82921C13.6092 2.82921 13.8626 2.93375 14.05 3.12L16.88 6C17.0662 6.18736 17.1708 6.44081 17.1708 6.705C17.1708 6.96919 17.0662 7.22264 16.88 7.41L14 10.29L10 14.24V5.76ZM18 17C18 17.2652 17.8946 17.5196 17.7071 17.7071C17.5196 17.8946 17.2652 18 17 18H9.82C9.92258 17.7036 9.9799 17.3935 9.99 17.08L15.07 12H17C17.2652 12 17.5196 12.1054 17.7071 12.2929C17.8946 12.4804 18 12.7348 18 13V17Z" fill="#383838"/>
    </symbol>
    <symbol id ="icon-companies" viewBox="0 0 20 19">
        <path d="M17.0804 6.01673L11.052 0.763019C10.4994 0.271652 9.784 0 9.04258 0C8.30117 0 7.58576 0.271652 7.03314 0.763019L1.00482 6.01673C0.685685 6.30047 0.43102 6.64853 0.257778 7.03776C0.0845357 7.42698 -0.0033081 7.84842 9.52416e-05 8.27403V17.0036C9.52416e-05 17.7983 0.317658 18.5604 0.882923 19.1224C1.44819 19.6843 2.21485 20 3.01426 20H15.0709C15.8703 20 16.637 19.6843 17.2022 19.1224C17.7675 18.5604 18.0851 17.7983 18.0851 17.0036V8.26404C18.087 7.84011 17.9985 7.42059 17.8253 7.0332C17.6521 6.6458 17.3982 6.29935 17.0804 6.01673ZM11.052 18.0024H7.03314V13.0084C7.03314 12.7435 7.139 12.4894 7.32742 12.3021C7.51584 12.1148 7.77139 12.0096 8.03786 12.0096H10.0473C10.3138 12.0096 10.5693 12.1148 10.7577 12.3021C10.9462 12.4894 11.052 12.7435 11.052 13.0084V18.0024ZM16.0756 17.0036C16.0756 17.2685 15.9698 17.5225 15.7814 17.7098C15.5929 17.8972 15.3374 18.0024 15.0709 18.0024H13.0615V13.0084C13.0615 12.2137 12.7439 11.4515 12.1786 10.8896C11.6134 10.3276 10.8467 10.012 10.0473 10.012H8.03786C7.23846 10.012 6.47179 10.3276 5.90653 10.8896C5.34126 11.4515 5.0237 12.2137 5.0237 13.0084V18.0024H3.01426C2.74779 18.0024 2.49223 17.8972 2.30381 17.7098C2.11539 17.5225 2.00954 17.2685 2.00954 17.0036V8.26404C2.00972 8.12223 2.04027 7.98208 2.09918 7.85291C2.15808 7.72375 2.24397 7.60854 2.35114 7.51494L8.37947 2.27121C8.56282 2.11109 8.79853 2.02278 9.04258 2.02278C9.28664 2.02278 9.52235 2.11109 9.7057 2.27121L15.734 7.51494C15.8412 7.60854 15.9271 7.72375 15.986 7.85291C16.0449 7.98208 16.0755 8.12223 16.0756 8.26404V17.0036Z" fill="#383838"/>
    </symbol>
    <symbol id ="icon-educations" viewBox="0 0 26 19">
        <path d="M24.4505 6.69535L23.257 6.03895L12.5158 0.071608H12.3845C12.3114 0.0406718 12.2355 0.0166967 12.1578 0H11.931H11.7162C11.6347 0.0167076 11.5548 0.0406723 11.4775 0.071608H11.3462L0.605026 6.03895C0.421354 6.14304 0.26858 6.29399 0.162291 6.4764C0.0560013 6.6588 0 6.86614 0 7.07726C0 7.28838 0.0560013 7.49572 0.162291 7.67813C0.26858 7.86054 0.421354 8.01149 0.605026 8.11558L3.57676 9.76256V15.4196C3.57676 16.3692 3.95398 17.2799 4.62544 17.9513C5.29689 18.6228 6.20758 19 7.15716 19H16.7049C17.6545 19 18.5652 18.6228 19.2366 17.9513C19.9081 17.2799 20.2853 16.3692 20.2853 15.4196V9.76256L22.6722 8.42588V11.8392C22.6722 12.1557 22.798 12.4593 23.0218 12.6831C23.2456 12.9069 23.5492 13.0327 23.8657 13.0327C24.1822 13.0327 24.4858 12.9069 24.7096 12.6831C24.9334 12.4593 25.0592 12.1557 25.0592 11.8392V7.73367C25.0588 7.52219 25.0023 7.31461 24.8953 7.13217C24.7884 6.94972 24.6349 6.79898 24.4505 6.69535ZM17.8984 15.4196C17.8984 15.7361 17.7726 16.0397 17.5488 16.2635C17.325 16.4873 17.0214 16.6131 16.7049 16.6131H7.15716C6.84063 16.6131 6.53707 16.4873 6.31325 16.2635C6.08944 16.0397 5.96369 15.7361 5.96369 15.4196V11.0873L11.3462 14.071L11.5253 14.1426H11.6327C11.7317 14.1551 11.832 14.1551 11.931 14.1426C12.0301 14.1551 12.1303 14.1551 12.2294 14.1426H12.3368C12.4002 14.1292 12.4607 14.105 12.5158 14.071L17.8984 11.0873V15.4196ZM11.931 11.6721L3.64837 7.06533L11.931 2.45854L20.2137 7.06533L11.931 11.6721Z"/>
    </symbol>
    <symbol id ="icon-work" viewBox="0 0 20 19">
        <path d="M17 4H14V3C14 2.20435 13.6839 1.44129 13.1213 0.87868C12.5587 0.316071 11.7956 0 11 0H9C8.20435 0 7.44129 0.316071 6.87868 0.87868C6.31607 1.44129 6 2.20435 6 3V4H3C2.20435 4 1.44129 4.31607 0.87868 4.87868C0.316071 5.44129 0 6.20435 0 7V16C0 16.7956 0.316071 17.5587 0.87868 18.1213C1.44129 18.6839 2.20435 19 3 19H17C17.7956 19 18.5587 18.6839 19.1213 18.1213C19.6839 17.5587 20 16.7956 20 16V7C20 6.20435 19.6839 5.44129 19.1213 4.87868C18.5587 4.31607 17.7956 4 17 4ZM8 3C8 2.73478 8.10536 2.48043 8.29289 2.29289C8.48043 2.10536 8.73478 2 9 2H11C11.2652 2 11.5196 2.10536 11.7071 2.29289C11.8946 2.48043 12 2.73478 12 3V4H8V3ZM18 16C18 16.2652 17.8946 16.5196 17.7071 16.7071C17.5196 16.8946 17.2652 17 17 17H3C2.73478 17 2.48043 16.8946 2.29289 16.7071C2.10536 16.5196 2 16.2652 2 16V10.95H5V12C5 12.2652 5.10536 12.5196 5.29289 12.7071C5.48043 12.8946 5.73478 13 6 13C6.26522 13 6.51957 12.8946 6.70711 12.7071C6.89464 12.5196 7 12.2652 7 12V10.95H13V12C13 12.2652 13.1054 12.5196 13.2929 12.7071C13.4804 12.8946 13.7348 13 14 13C14.2652 13 14.5196 12.8946 14.7071 12.7071C14.8946 12.5196 15 12.2652 15 12V10.95H18V16ZM18 9H2V7C2 6.73478 2.10536 6.48043 2.29289 6.29289C2.48043 6.10536 2.73478 6 3 6H17C17.2652 6 17.5196 6.10536 17.7071 6.29289C17.8946 6.48043 18 6.73478 18 7V9Z"/>
    </symbol>
    <symbol id ="icon-calendar" viewBox="0 0 15 16">
        <path d="M12.75 2H11.25V1.25C11.25 1.05109 11.171 0.860322 11.0303 0.71967C10.8897 0.579018 10.6989 0.5 10.5 0.5C10.3011 0.5 10.1103 0.579018 9.96967 0.71967C9.82902 0.860322 9.75 1.05109 9.75 1.25V2H5.25V1.25C5.25 1.05109 5.17098 0.860322 5.03033 0.71967C4.88968 0.579018 4.69891 0.5 4.5 0.5C4.30109 0.5 4.11032 0.579018 3.96967 0.71967C3.82902 0.860322 3.75 1.05109 3.75 1.25V2H2.25C1.65326 2 1.08097 2.23705 0.65901 2.65901C0.237053 3.08097 0 3.65326 0 4.25V13.25C0 13.8467 0.237053 14.419 0.65901 14.841C1.08097 15.2629 1.65326 15.5 2.25 15.5H12.75C13.3467 15.5 13.919 15.2629 14.341 14.841C14.7629 14.419 15 13.8467 15 13.25V4.25C15 3.65326 14.7629 3.08097 14.341 2.65901C13.919 2.23705 13.3467 2 12.75 2ZM13.5 13.25C13.5 13.4489 13.421 13.6397 13.2803 13.7803C13.1397 13.921 12.9489 14 12.75 14H2.25C2.05109 14 1.86032 13.921 1.71967 13.7803C1.57902 13.6397 1.5 13.4489 1.5 13.25V8H13.5V13.25ZM13.5 6.5H1.5V4.25C1.5 4.05109 1.57902 3.86032 1.71967 3.71967C1.86032 3.57902 2.05109 3.5 2.25 3.5H3.75V4.25C3.75 4.44891 3.82902 4.63968 3.96967 4.78033C4.11032 4.92098 4.30109 5 4.5 5C4.69891 5 4.88968 4.92098 5.03033 4.78033C5.17098 4.63968 5.25 4.44891 5.25 4.25V3.5H9.75V4.25C9.75 4.44891 9.82902 4.63968 9.96967 4.78033C10.1103 4.92098 10.3011 5 10.5 5C10.6989 5 10.8897 4.92098 11.0303 4.78033C11.171 4.63968 11.25 4.44891 11.25 4.25V3.5H12.75C12.9489 3.5 13.1397 3.57902 13.2803 3.71967C13.421 3.86032 13.5 4.05109 13.5 4.25V6.5Z" fill="#616161"/>
    </symbol>
    <symbol id ="icon-HTML" viewBox="0 0 30 30">
        <path d="M27.4254 0.46472C27.2916 0.318231 27.1288 0.20135 26.9473 0.121367C26.7659 0.0413844 26.5697 5.18569e-05 26.3714 0H1.42859C1.2303 7.52165e-05 1.0342 0.0414117 0.852756 0.121381C0.671312 0.20135 0.508494 0.318202 0.374657 0.464505C0.240819 0.610809 0.138891 0.783363 0.0753547 0.971193C0.0118181 1.15902 -0.0119366 1.35802 0.0056009 1.55553L2.17703 25.8412C2.20279 26.1306 2.31622 26.4053 2.50218 26.6285C2.68814 26.8517 2.93778 27.0129 3.21776 27.0905L13.5038 29.9477C13.6282 29.9824 13.7568 30 13.8861 30C14.015 29.9999 14.1433 29.9825 14.2676 29.9484L24.5815 27.0912C24.8616 27.0135 25.1114 26.8522 25.2974 26.6289C25.4835 26.4055 25.5971 26.1308 25.6229 25.8412L27.7944 1.55553C27.8119 1.35803 27.7882 1.15904 27.7247 0.971222C27.6612 0.783399 27.5592 0.610855 27.4254 0.464572ZM22.8649 24.6017L13.8868 27.0891L4.93517 24.6024L2.99041 2.85714H24.8096L22.8649 24.6017ZM7.92833 15.7143H17.7783L17.311 20.3871L13.6426 21.6971L9.12323 20.083C8.94647 20.0196 8.75895 19.9917 8.57139 20.0009C8.38383 20.01 8.19992 20.056 8.03016 20.1363C7.8604 20.2166 7.70814 20.3296 7.58207 20.4687C7.456 20.6079 7.35859 20.7705 7.29543 20.9474C7.23227 21.1242 7.20458 21.3118 7.21395 21.4993C7.22333 21.6869 7.26958 21.8707 7.35007 22.0404C7.43055 22.21 7.54369 22.3622 7.68301 22.4881C7.82233 22.614 7.9851 22.7112 8.16201 22.7741L13.162 24.5598C13.4729 24.6705 13.8124 24.6705 14.1232 24.5598L19.1232 22.7741C19.3778 22.6831 19.6014 22.5217 19.768 22.3088C19.9345 22.0958 20.0372 21.8399 20.0642 21.5709L20.7785 14.428C20.7982 14.2294 20.7762 14.0289 20.7137 13.8393C20.6513 13.6498 20.5498 13.4754 20.4159 13.3274C20.282 13.1795 20.1186 13.0612 19.9362 12.9802C19.7538 12.8992 19.5565 12.8573 19.3569 12.8571H9.22089L8.79259 8.57143H20.0712C20.45 8.57143 20.8134 8.42092 21.0813 8.15301C21.3492 7.8851 21.4997 7.52174 21.4997 7.14286C21.4997 6.76398 21.3492 6.40061 21.0813 6.13271C20.8134 5.8648 20.45 5.71429 20.0712 5.71429H7.21402C7.01444 5.71441 6.81711 5.75632 6.63472 5.83732C6.45232 5.91832 6.28891 6.03662 6.155 6.18459C6.02109 6.33256 5.91964 6.50694 5.8572 6.69649C5.79475 6.88604 5.77269 7.08656 5.79243 7.28516L6.50671 14.428C6.54204 14.7805 6.70706 15.1073 6.96975 15.345C7.23245 15.5827 7.57407 15.7143 7.92833 15.7143Z" fill="#383838"/>
    </symbol>
    <symbol id ="icon-CSS" viewBox="0 0 30 30">
        <path d="M7.32876 9.00001H17.8083L17.5425 12H10.3874C9.98953 12 9.608 12.1581 9.32669 12.4394C9.04539 12.7207 8.88735 13.1022 8.88735 13.5C8.88735 13.8978 9.04539 14.2794 9.32669 14.5607C9.608 14.842 9.98953 15 10.3874 15H17.2766L16.881 19.4649L13.3874 20.2573L9.89517 19.4634L9.75161 17.8667C9.7341 17.6705 9.67812 17.4796 9.58686 17.3051C9.4956 17.1305 9.37084 16.9756 9.21972 16.8492C9.0686 16.7229 8.89407 16.6275 8.70609 16.5686C8.51812 16.5097 8.32038 16.4884 8.12416 16.5059C7.92795 16.5234 7.73711 16.5793 7.56253 16.6706C7.38795 16.7619 7.23306 16.8866 7.10669 17.0377C6.98033 17.1889 6.88497 17.3634 6.82605 17.5514C6.76714 17.7393 6.74583 17.9371 6.76333 18.1333L7.00356 20.8183C7.03193 21.1343 7.1596 21.4331 7.36828 21.6721C7.57695 21.911 7.85592 22.0777 8.16519 22.1484L13.0548 23.2587C13.2738 23.3076 13.5009 23.3076 13.7199 23.2587L18.611 22.1484C18.9205 22.0777 19.1996 21.9107 19.4083 21.6715C19.617 21.4323 19.7446 21.1331 19.7726 20.8169L20.42 13.515L20.423 13.5L20.4218 13.4941L20.9415 7.63179C20.9596 7.42455 20.9344 7.21582 20.8675 7.01883C20.8007 6.82185 20.6936 6.64091 20.5531 6.48748C20.4126 6.33405 20.2418 6.21149 20.0515 6.12757C19.8611 6.04364 19.6554 6.00018 19.4474 5.99995H7.32876C6.93093 5.99995 6.5494 6.15798 6.2681 6.43929C5.98679 6.72059 5.82875 7.10213 5.82875 7.49995C5.82875 7.89778 5.98679 8.27931 6.2681 8.56061C6.5494 8.84192 6.93093 8.99995 7.32876 8.99995V9.00001ZM26.382 0.487786C26.2413 0.334175 26.0702 0.211491 25.8796 0.12752C25.6889 0.0435487 25.4829 0.000123324 25.2746 1.59703e-07H1.50014C1.29189 -9.59514e-05 1.0859 0.0431895 0.895296 0.127098C0.704695 0.211007 0.533662 0.333698 0.393096 0.487356C0.25253 0.641013 0.145513 0.822266 0.0788643 1.01957C0.0122153 1.21687 -0.0126042 1.42589 0.00598717 1.63331L2.17103 25.9248C2.19803 26.2284 2.31696 26.5165 2.51194 26.7508C2.70693 26.985 2.9687 27.1542 3.26234 27.2358L12.9713 29.9443C13.2348 30.0186 13.5136 30.0186 13.777 29.9443L23.5124 27.2256C23.806 27.144 24.0678 26.9747 24.2628 26.7405C24.4578 26.5063 24.5767 26.2181 24.6037 25.9146L26.7687 1.63329C26.7871 1.42598 26.7622 1.21711 26.6957 1.01993C26.6291 0.822736 26.5223 0.641527 26.382 0.487786ZM21.7077 24.6153L13.3742 26.943L5.06704 24.6255L3.1393 3H23.6354L21.7077 24.6153Z" fill="#383838"/>
    </symbol>
    <symbol id ="icon-JS" viewBox="0 0 30 30">
        <path d="M0 0V30H30V0H0ZM16.3343 22.4913C16.3343 26.1802 14.5465 27.4099 11.8953 27.4099C11.2025 27.4089 10.514 27.3001 9.85465 27.0872L10.1512 25.1163C10.6338 25.2816 11.141 25.3642 11.6512 25.3605C13.0465 25.3605 13.8924 24.7326 13.8924 22.4128V13.8314H16.3343V22.4913ZM22.0203 27.3924C20.7644 27.3948 19.5263 27.0957 18.4099 26.5203L18.9506 24.4971C19.9363 25.053 21.0457 25.3529 22.1773 25.3692C23.7209 25.3779 24.593 24.6453 24.593 23.5552C24.593 22.4651 23.9302 21.9767 22.2384 21.3401C20.032 20.5552 18.6279 19.3692 18.6279 17.4593C18.6279 15.2703 20.4506 13.6221 23.3547 13.6221C24.4588 13.5885 25.5553 13.8155 26.5552 14.2849L25.9709 16.2471C25.1446 15.8269 24.2293 15.6115 23.3023 15.6192C21.75 15.6192 21.0959 16.439 21.0959 17.2238C21.0959 18.2529 21.8721 18.7326 23.6512 19.4128C25.9709 20.2849 27.0872 21.4622 27.0872 23.3808C27.0872 25.5349 25.4651 27.3924 22.0203 27.3924Z" fill="black"/>
    </symbol>
    <symbol id ="icon-ReactJS" viewBox="0 0 30 30">
        <path d="M15 21.25C6.58875 21.25 0 18.505 0 15C0 11.495 6.58875 8.75 15 8.75C23.4113 8.75 30 11.495 30 15C30 18.505 23.4113 21.25 15 21.25ZM15 10C6.8975 10 1.25 12.635 1.25 15C1.25 17.365 6.8975 20 15 20C23.1025 20 28.75 17.365 28.75 15C28.75 12.635 23.1025 10 15 10Z" fill="black"/>
        <path d="M9.58875 28.7512C8.99 28.7512 8.45125 28.6037 7.9775 28.3087C5 26.4562 6.015 19.1612 10.2862 11.7037C13.4237 6.22498 17.4675 2.17748 20.5888 1.38998C21.63 1.12998 22.53 1.22998 23.2725 1.68998C26.25 3.54373 25.235 10.8387 20.9637 18.2962C17.8263 23.775 13.7825 27.8225 10.6612 28.61C10.285 28.7037 9.9275 28.7512 9.58875 28.7512ZM8.6375 27.2475C9.08 27.5237 9.6575 27.5725 10.355 27.3975C13.12 26.7 16.9475 22.7925 19.8775 17.6762C24.015 10.4537 24.6388 4.01373 22.6125 2.75373C22.17 2.47748 21.5925 2.42748 20.895 2.60373C18.13 3.30123 14.3025 7.20873 11.3725 12.325C7.235 19.5475 6.61125 25.9862 8.6375 27.2475Z" fill="black"/>
        <path d="M20.4112 28.7513C20.0725 28.7513 19.715 28.7038 19.3387 28.61C16.2175 27.8225 12.1737 23.775 9.03625 18.2963C4.765 10.8388 3.75 3.54376 6.7275 1.69126C7.46875 1.23126 8.37125 1.13126 9.41125 1.39126C12.5325 2.17876 16.5762 6.22626 19.7137 11.705C23.985 19.1625 25 26.4575 22.0237 28.31C21.5487 28.6038 21.01 28.7513 20.4112 28.7513ZM21.6925 27.7788H21.705H21.6925ZM8.34625 2.50001C7.97875 2.50001 7.6575 2.58376 7.3875 2.75251C5.36125 4.01376 5.985 10.4525 10.1225 17.675C13.0525 22.7925 16.88 26.7 19.645 27.3963C20.3425 27.5713 20.92 27.5225 21.3625 27.2463C23.3888 25.985 22.765 19.5463 18.6275 12.3238C15.6975 7.20626 11.87 3.29876 9.105 2.60251C8.83375 2.53376 8.58 2.50001 8.34625 2.50001Z" fill="black"/>
        <path d="M15 18.125C13.2775 18.125 11.875 16.7238 11.875 15C11.875 13.2763 13.2775 11.875 15 11.875C16.7225 11.875 18.125 13.2763 18.125 15C18.125 16.7238 16.7225 18.125 15 18.125ZM15 13.125C13.9662 13.125 13.125 13.9662 13.125 15C13.125 16.0338 13.9662 16.875 15 16.875C16.0338 16.875 16.875 16.0338 16.875 15C16.875 13.9662 16.0338 13.125 15 13.125Z" fill="black"/>
    </symbol>
    <symbol id ="icon-figma" viewBox="0 0 30 30">
        <path fill-rule="evenodd" clip-rule="evenodd" d="M5.38401 0H13.9935C16.9615 0 19.3775 2.64003 19.3775 5.80946C19.3775 7.66232 18.5509 9.33597 17.2705 10.4044C18.5509 11.4742 19.3775 13.1465 19.3775 15.0007C19.3775 18.1688 16.9615 20.8088 13.9935 20.8088C12.7843 20.8088 11.667 20.3718 10.768 19.6383V24.1905C10.768 27.36 8.35319 30 5.38401 30C2.41606 30 0 27.36 0 24.1905C0 22.3377 0.826595 20.6654 2.10698 19.5956C0.826595 18.5258 0 16.8536 0 15.0007C0 13.1465 0.826595 11.4742 2.10698 10.4044C0.826595 9.33597 0 7.66232 0 5.80946C0 2.64003 2.41606 0 5.38401 0ZM8.6095 20.8088H5.38401C3.63022 20.8088 2.1585 22.3184 2.1585 24.1905C2.1585 26.0641 3.63022 27.5723 5.38401 27.5723C7.13903 27.5723 8.6095 26.0641 8.6095 24.1905V20.8088ZM10.768 15.0007C10.768 13.1272 12.2385 11.6176 13.9935 11.6176C15.7473 11.6176 17.219 13.1272 17.219 15.0007C17.219 16.8729 15.7473 18.3824 13.9935 18.3824C12.2385 18.3824 10.768 16.8729 10.768 15.0007ZM5.34353 11.619C3.60691 11.641 2.1585 13.1423 2.1585 15.0007C2.1585 16.8729 3.63022 18.3824 5.38401 18.3824H8.6095V11.6176H5.38401L5.34353 11.619ZM8.6095 9.19121V2.42772H5.38401C3.63022 2.42772 2.1585 3.93593 2.1585 5.80946C2.1585 7.683 3.63022 9.19121 5.38401 9.19121H8.6095ZM10.768 9.19121H13.9935C15.7473 9.19121 17.219 7.683 17.219 5.80946C17.219 3.93593 15.7473 2.42772 13.9935 2.42772H10.768V9.19121Z" fill="#2C2C2C"/>
    </symbol>
    <symbol id ="icon-ps" viewBox="0 0 30 30">
        <path fill-rule="evenodd" clip-rule="evenodd" d="M25.3863 1.73876C25.3863 1.11751 24.8826 0.61377 24.2613 0.61377H1.73882C1.11757 0.61377 0.613831 1.11751 0.613831 1.73876V24.2613C0.613831 24.8825 1.11757 25.3863 1.73882 25.3863H24.2613C24.8826 25.3863 25.3863 24.8825 25.3863 24.2613V1.73876ZM2.86382 2.86375V23.1363H23.1363V2.86375H2.86382ZM19.6401 11.0813C19.1338 10.6388 18.2826 10.2975 17.4326 10.27C16.5663 10.2413 15.7301 10.53 15.1838 11.1638C14.8176 11.5888 14.5563 12.18 14.5563 13C14.5563 14.4025 15.3551 15.0188 16.4188 15.4175C16.6951 15.5213 16.9926 15.6075 17.2738 15.7138C17.5101 15.8038 17.7738 15.8788 17.7738 16.2175C17.7738 16.4038 17.7663 16.5475 17.6863 16.635C17.5676 16.765 17.3676 16.7338 17.1901 16.7188C16.9001 16.6925 16.6038 16.6213 16.4763 16.495C16.0376 16.055 15.3251 16.055 14.8863 16.495C14.4463 16.9338 14.4463 17.6463 14.8863 18.085C15.2738 18.4738 16.1088 18.8825 16.9938 18.96C17.8738 19.0375 18.7613 18.7937 19.3463 18.1537C19.7351 17.7287 20.0238 17.1138 20.0238 16.2175C20.0238 14.7188 19.2151 14.0687 18.1863 13.655C17.8951 13.5375 17.5813 13.445 17.2863 13.3388C17.1888 13.3038 17.0938 13.2688 17.0051 13.2263C16.9088 13.1813 16.8063 13.1375 16.8063 13C16.8063 12.8413 16.8163 12.715 16.8876 12.6325C16.9976 12.5063 17.1851 12.5125 17.3588 12.5188C17.6626 12.5288 17.9776 12.6163 18.1576 12.7738C18.6251 13.1825 19.3363 13.135 19.7451 12.6687C20.1538 12.2012 20.1063 11.49 19.6401 11.0813ZM7.04884 17.8263V8.17377C7.04884 7.60377 7.47384 7.12501 8.04009 7.05626C9.57759 6.87251 11.1126 6.93375 12.2663 7.37875C13.7051 7.93625 14.6613 9.01251 14.6613 10.855C14.6613 12.6388 13.4963 13.875 11.9551 14.4875C11.1126 14.8225 10.1676 14.9563 9.29883 14.9063V17.8263C9.29883 18.4475 8.79509 18.9512 8.17384 18.9512C7.55259 18.9512 7.04884 18.4475 7.04884 17.8263ZM9.29883 12.6625C9.87883 12.7213 10.5426 12.6275 11.1226 12.3975C11.8076 12.125 12.4113 11.6463 12.4113 10.855C12.4113 9.93126 11.7838 9.51501 10.9751 9.33501C10.4651 9.22126 9.89383 9.18876 9.29883 9.21126V12.6625Z" fill="#2C2C2C"/>
    </symbol>
        <symbol id ="icon-wave" viewBox="0 0 170 17">
        <path d="M0 5.99999C61.5 14.5 104.302 -10.6497 170 5.99999V17H0V5.99999Z"/>
    </symbol>
</svg>